<svg width="80" height="80" viewBox="0 0 80 80" fill="none" xmlns="http://www.w3.org/2000/svg">
<circle cx="40" cy="40" r="40" fill="#CBE8FB"/>
<path d="M46.1027 30.8329C45.7563 30.8329 45.4776 30.5542 45.4776 30.2078V27.5514H42.0972C41.7509 27.5514 41.4722 27.2728 41.4722 26.9263C41.4722 26.5799 41.7508 26.3013 42.0972 26.3013H46.1027C46.449 26.3013 46.7278 26.5799 46.7278 26.9263V30.2078C46.7277 30.5516 46.449 30.8329 46.1027 30.8329Z" fill="#335AA7"/>
<path d="M46.1032 54.2404H25.1905C24.8441 54.2404 24.5654 53.9618 24.5654 53.6154V26.9238C24.5654 26.5774 24.8441 26.2987 25.1905 26.2987H29.196C29.5423 26.2987 29.821 26.5773 29.821 26.9238C29.821 27.2702 29.5424 27.5488 29.196 27.5488H25.8155V52.9878H45.4781V50.6179C45.4781 50.2715 45.7567 49.9928 46.1032 49.9928C46.4496 49.9928 46.7282 50.2715 46.7282 50.6179V53.6128C46.7281 53.9592 46.4495 54.2404 46.1032 54.2404Z" fill="#335AA7"/>
<path d="M42.0977 28.7053H29.1959C28.8495 28.7053 28.5708 28.4266 28.5708 28.0802V23.4184C28.5708 22.4444 29.3625 21.6527 30.3365 21.6527H32.2116C32.558 21.6527 32.8367 21.9313 32.8367 22.2778C32.8367 22.6242 32.5581 22.9028 32.2116 22.9028H30.3365C30.0526 22.9028 29.8209 23.1346 29.8209 23.4184V27.4551H41.4726V23.4184C41.4726 23.1345 41.2408 22.9028 40.957 22.9028H39.0819C38.7355 22.9028 38.4568 22.6242 38.4568 22.2778C38.4568 21.9313 38.7355 21.6527 39.0819 21.6527H40.957C41.931 21.6527 42.7227 22.4444 42.7227 23.4184V28.0802C42.7227 28.4265 42.444 28.7053 42.0977 28.7053Z" fill="#335AA7"/>
<path d="M48.6708 56.8059H22.6251C22.2787 56.8059 22 56.5273 22 56.1809V24.3587C22 24.0123 22.2786 23.7336 22.6251 23.7336H29.1957C29.5421 23.7336 29.8208 24.0123 29.8208 24.3587C29.8208 24.7051 29.5422 24.9838 29.1957 24.9838H23.25V55.5559H48.0457V50.7431C48.0457 50.3967 48.3244 50.118 48.6708 50.118C49.0172 50.118 49.2959 50.3966 49.2959 50.7431V56.1809C49.2959 56.5246 49.0146 56.8059 48.6708 56.8059Z" fill="#335AA7"/>
<path d="M48.6705 30.7107C48.3241 30.7107 48.0454 30.432 48.0454 30.0856V24.9838H42.0972C41.7509 24.9838 41.4722 24.7051 41.4722 24.3587C41.4722 24.0123 41.7508 23.7336 42.0972 23.7336H48.6679C49.0142 23.7336 49.2929 24.0123 49.2929 24.3587V30.0856C49.2955 30.4293 49.0143 30.7107 48.6705 30.7107Z" fill="#335AA7"/>
<path d="M39.0817 24.2648H32.2115C31.8651 24.2648 31.5864 23.9862 31.5864 23.6398V19.8193C31.5864 19.4729 31.8651 19.1942 32.2115 19.1942H39.0817C39.428 19.1942 39.7067 19.4728 39.7067 19.8193V23.6398C39.7066 23.9861 39.428 24.2648 39.0817 24.2648ZM32.8365 23.0147H38.4566V20.4443H32.8365V23.0147Z" fill="#335AA7"/>
<path d="M40.2065 34.0806H33.6514C33.3051 34.0806 33.0264 33.8019 33.0264 33.4555C33.0264 33.1092 33.305 32.8304 33.6514 32.8304H40.2065C40.5528 32.8304 40.8315 33.1091 40.8315 33.4555C40.8315 33.8019 40.5502 34.0806 40.2065 34.0806Z" fill="#335AA7"/>
<path d="M29.4169 34.5519C29.2503 34.5519 29.0914 34.4868 28.9743 34.3697L28.1616 33.5571C27.9168 33.3123 27.9168 32.9164 28.1616 32.6742C28.4064 32.432 28.8023 32.4294 29.0445 32.6742L29.4143 33.0441L30.8545 31.6039C31.0993 31.3591 31.4952 31.3591 31.7374 31.6039C31.9822 31.8487 31.9822 32.2446 31.7374 32.4868L29.8545 34.3697C29.7425 34.4842 29.5836 34.5519 29.4169 34.5519Z" fill="#335AA7"/>
<path d="M37.6985 39.1277H33.6514C33.3051 39.1277 33.0264 38.8491 33.0264 38.5026C33.0264 38.1562 33.305 37.8776 33.6514 37.8776H37.6985C38.0449 37.8776 38.3236 38.1562 38.3236 38.5026C38.3236 38.8491 38.0424 39.1277 37.6985 39.1277Z" fill="#335AA7"/>
<path d="M29.4174 39.5964C29.2507 39.5964 29.0918 39.5312 28.9747 39.4141L28.1621 38.6015C27.9173 38.3567 27.9173 37.9609 28.1621 37.7187C28.4069 37.4739 28.8028 37.4739 29.045 37.7187L29.4148 38.0885L30.855 36.6483C31.0998 36.4035 31.4957 36.4035 31.7379 36.6483C31.9827 36.8931 31.9827 37.289 31.7379 37.5312L29.855 39.4141C29.7429 39.5312 29.584 39.5964 29.4174 39.5964Z" fill="#335AA7"/>
<path d="M38.0032 44.1722H33.6514C33.3051 44.1722 33.0264 43.8936 33.0264 43.5472C33.0264 43.2007 33.305 42.9221 33.6514 42.9221H38.0032C38.3496 42.9221 38.6283 43.2007 38.6283 43.5472C38.6283 43.8936 38.3497 44.1722 38.0032 44.1722Z" fill="#335AA7"/>
<path d="M29.4169 44.6436C29.2503 44.6436 29.0914 44.5785 28.9743 44.4613L28.1616 43.6488C27.9168 43.404 27.9168 43.0081 28.1616 42.7659C28.4064 42.5211 28.8023 42.5211 29.0445 42.7659L29.4143 43.1358L30.8545 41.6956C31.0993 41.4508 31.4952 41.4508 31.7374 41.6956C31.9822 41.9404 31.9822 42.3362 31.7374 42.5784L29.8545 44.4613C29.7425 44.5785 29.5836 44.6436 29.4169 44.6436Z" fill="#335AA7"/>
<path d="M41.5243 49.2194H33.6514C33.3051 49.2194 33.0264 48.9407 33.0264 48.5943C33.0264 48.2479 33.305 47.9692 33.6514 47.9692H41.5243C41.8707 47.9692 42.1494 48.2479 42.1494 48.5943C42.1494 48.9407 41.8707 49.2194 41.5243 49.2194Z" fill="#335AA7"/>
<path d="M29.4174 49.6909C29.2507 49.6909 29.0918 49.6257 28.9747 49.5086L28.1621 48.696C27.9173 48.4512 27.9173 48.0554 28.1621 47.8132C28.4069 47.5684 28.8028 47.5684 29.045 47.8132L29.4148 48.183L30.855 46.7428C31.0998 46.498 31.4957 46.498 31.7379 46.7428C31.9827 46.9876 31.9827 47.3835 31.7379 47.6257L29.855 49.5086C29.7429 49.6231 29.584 49.6909 29.4174 49.6909Z" fill="#335AA7"/>
<path d="M47.8791 51.3967C46.3972 51.3967 44.957 51.1049 43.6028 50.532C42.2954 49.9799 41.1208 49.1881 40.113 48.1777C39.1052 47.1699 38.3134 45.9953 37.7587 44.6879C37.1858 43.3337 36.894 41.8961 36.894 40.4116C36.894 38.9272 37.1858 37.4896 37.7587 36.1354C38.3108 34.828 39.1026 33.6534 40.113 32.6456C41.1234 31.6378 42.2954 30.846 43.6028 30.2913C44.957 29.7183 46.3946 29.4266 47.8791 29.4266C49.3635 29.4266 50.8011 29.7183 52.1553 30.2913C53.4627 30.8434 54.6373 31.6351 55.6451 32.6456C56.6529 33.6534 57.4447 34.828 57.9994 36.1354C58.5723 37.4896 58.8641 38.9272 58.8641 40.4116C58.8641 41.8961 58.5723 43.3337 57.9994 44.6879C57.4473 45.9953 56.6555 47.1699 55.6451 48.1777C54.6373 49.1855 53.4627 49.9773 52.1553 50.532C50.8011 51.1075 49.3609 51.3967 47.8791 51.3967ZM47.8791 30.6793C42.5116 30.6793 38.1467 35.0467 38.1467 40.4142C38.1467 45.7818 42.5141 50.1466 47.8791 50.1466C53.244 50.1466 57.6114 45.7792 57.6114 40.4142C57.6114 35.0493 53.2465 30.6793 47.8791 30.6793Z" fill="#335AA7"/>
<path d="M47.879 47.9172C45.8737 47.9172 43.9908 47.1359 42.574 45.7192C41.1572 44.3024 40.376 42.4169 40.376 40.4142C40.376 38.4114 41.1573 36.5259 42.574 35.1092C43.9908 33.6924 45.8763 32.9111 47.879 32.9111C49.8818 32.9111 51.7673 33.6925 53.184 35.1092C54.6008 36.5259 55.3821 38.4114 55.3821 40.4142C55.3821 42.4169 54.6007 44.3024 53.184 45.7192C51.7673 47.1359 49.8843 47.9172 47.879 47.9172ZM47.879 34.1612C46.2096 34.1612 44.6393 34.8122 43.4569 35.992C42.2771 37.1718 41.626 38.7422 41.626 40.4142C41.626 42.0862 42.2771 43.6539 43.4569 44.8363C44.6367 46.0161 46.207 46.6672 47.879 46.6672C49.551 46.6672 51.1188 46.0161 52.3012 44.8363C53.4836 43.6565 54.132 42.0862 54.132 40.4142C54.132 38.7422 53.481 37.1744 52.3012 35.992C51.1188 34.8123 49.5509 34.1612 47.879 34.1612Z" fill="#335AA7"/>
<path d="M47.879 44.4354C47.3425 44.4354 46.8243 44.3338 46.3372 44.1332C45.8528 43.9327 45.4127 43.6384 45.0351 43.2582C44.6548 42.8779 44.3606 42.4404 44.16 41.956C43.9595 41.4716 43.8579 40.9534 43.8579 40.4143C43.8579 39.8752 43.9595 39.3595 44.16 38.8725C44.3605 38.3881 44.6548 37.948 45.0351 37.5704C45.4153 37.1901 45.8528 36.8959 46.3372 36.6953C46.8216 36.4948 47.3399 36.3932 47.879 36.3932C48.4181 36.3932 48.9337 36.4947 49.4207 36.6953C49.9051 36.8958 50.3452 37.1901 50.7229 37.5704C51.1031 37.9506 51.3974 38.3881 51.598 38.8725C51.7984 39.3569 51.9001 39.8752 51.9001 40.4143C51.9001 40.9534 51.7985 41.469 51.598 41.956C51.3975 42.4404 51.1031 42.8805 50.7229 43.2582C50.3426 43.6384 49.9051 43.9327 49.4207 44.1332C48.9363 44.3337 48.418 44.4354 47.879 44.4354ZM47.879 37.6407C47.5065 37.6407 47.1498 37.711 46.8164 37.8491C46.4831 37.9871 46.181 38.1902 45.918 38.4532C45.6549 38.7163 45.4518 39.0184 45.3138 39.3517C45.1757 39.6851 45.1054 40.0419 45.1054 40.4143C45.1054 40.7866 45.1757 41.1435 45.3138 41.4768C45.4519 41.8102 45.6549 42.1123 45.918 42.3753C46.181 42.6383 46.4831 42.8415 46.8164 42.9795C47.1498 43.1174 47.5066 43.1878 47.879 43.1878C48.2514 43.1878 48.6082 43.1175 48.9415 42.9795C49.2749 42.8414 49.577 42.6383 49.84 42.3753C50.103 42.1123 50.3062 41.8102 50.4442 41.4768C50.5822 41.1435 50.6526 40.7866 50.6526 40.4143C50.6526 40.0419 50.5822 39.6851 50.4442 39.3517C50.3061 39.0184 50.103 38.7163 49.84 38.4532C49.577 38.1902 49.2749 37.9871 48.9415 37.8491C48.6082 37.7111 48.2514 37.6407 47.879 37.6407Z" fill="#335AA7"/>
<path d="M47.8788 41.0393C47.72 41.0393 47.5585 40.9794 47.436 40.857C47.1912 40.6122 47.1912 40.2163 47.436 39.9741L57.1944 30.2131C57.4392 29.9683 57.8351 29.9683 58.0773 30.2131C58.3221 30.4579 58.3221 30.8538 58.0773 31.096L48.3189 40.8543C48.1992 40.9768 48.0403 41.0393 47.8788 41.0393Z" fill="#335AA7"/>
<path d="M57.6373 31.2809C57.4733 31.2809 57.3118 31.2158 57.1946 31.0986C57.0695 30.9736 57.0019 30.7991 57.0123 30.6194L57.1216 28.7599C57.1294 28.6063 57.1946 28.463 57.3039 28.3537L59.1842 26.4734C59.3665 26.2911 59.6452 26.239 59.8822 26.3457C60.1192 26.4525 60.265 26.6947 60.2494 26.9526L60.1817 28.1088L61.338 28.0411C61.5984 28.0255 61.838 28.1714 61.9448 28.4084C62.0516 28.6454 61.9996 28.924 61.8172 29.1064L59.9369 30.9866C59.8276 31.096 59.6843 31.1585 59.5306 31.1689L57.6712 31.2783C57.6634 31.2809 57.6504 31.2809 57.6373 31.2809ZM58.3561 29.0698L58.3014 29.9891L59.2207 29.9343L59.7702 29.3848L59.5515 29.3978C59.3718 29.4082 59.1999 29.3431 59.0723 29.2155C58.9472 29.0905 58.8796 28.916 58.89 28.7363L58.903 28.5176L58.3561 29.0698Z" fill="#335AA7"/>
</svg>
