<svg width="80" height="80" viewBox="0 0 80 80" fill="none" xmlns="http://www.w3.org/2000/svg">
<circle cx="40" cy="40" r="40" fill="#CBE8FB"/>
<g clip-path="url(#clip0_8_1288)">
<path d="M25.9062 35.3438C25.9062 35.7752 26.2561 36.125 26.6875 36.125H31.375C31.8064 36.125 32.1562 35.7752 32.1562 35.3438V30.6562C32.1562 30.2248 31.8064 29.875 31.375 29.875H26.6875C26.2561 29.875 25.9062 30.2248 25.9062 30.6562V35.3438ZM27.4688 31.4375H30.5938V34.5625H27.4688V31.4375Z" fill="#335AA7"/>
<path d="M39.5781 22.0625H26.6875C26.2561 22.0625 25.9062 22.4123 25.9062 22.8438V25.9688C25.9062 26.4002 26.2561 26.75 26.6875 26.75H39.5781C40.0095 26.75 40.3594 26.4002 40.3594 25.9688V22.8438C40.3594 22.4123 40.0095 22.0625 39.5781 22.0625ZM38.7969 25.1875H27.4688V23.625H38.7969V25.1875Z" fill="#335AA7"/>
<path d="M45.4375 30.6562H34.5C34.0686 30.6562 33.7188 31.006 33.7188 31.4375C33.7188 31.869 34.0686 32.2188 34.5 32.2188H45.4375C45.8689 32.2188 46.2188 31.869 46.2188 31.4375C46.2188 31.006 45.8689 30.6562 45.4375 30.6562Z" fill="#335AA7"/>
<path d="M45.4375 33.7812H34.5C34.0686 33.7812 33.7188 34.131 33.7188 34.5625C33.7188 34.994 34.0686 35.3438 34.5 35.3438H45.4375C45.8689 35.3438 46.2188 34.994 46.2188 34.5625C46.2188 34.131 45.8689 33.7812 45.4375 33.7812Z" fill="#335AA7"/>
<path d="M25.9062 43.1562C25.9062 43.5877 26.2561 43.9375 26.6875 43.9375H31.375C31.8064 43.9375 32.1562 43.5877 32.1562 43.1562V38.4688C32.1562 38.0373 31.8064 37.6875 31.375 37.6875H26.6875C26.2561 37.6875 25.9062 38.0373 25.9062 38.4688V43.1562ZM27.4688 39.25H30.5938V42.375H27.4688V39.25Z" fill="#335AA7"/>
<path d="M25.9062 50.9688C25.9062 51.4002 26.2561 51.75 26.6875 51.75H31.375C31.8064 51.75 32.1562 51.4002 32.1562 50.9688V46.2812C32.1562 45.8498 31.8064 45.5 31.375 45.5H26.6875C26.2561 45.5 25.9062 45.8498 25.9062 46.2812V50.9688ZM27.4688 47.0625H30.5938V50.1875H27.4688V47.0625Z" fill="#335AA7"/>
<path d="M22.7812 38.8594C23.2127 38.8594 23.5625 38.5096 23.5625 38.0781C23.5625 37.6467 23.2127 37.2969 22.7812 37.2969C22.3498 37.2969 22 37.6467 22 38.0781C22 38.5096 22.3498 38.8594 22.7812 38.8594Z" fill="#335AA7"/>
<path d="M61.7705 38.4302C62.2117 37.9889 61.9831 37.234 61.3713 37.1116L59.1198 36.6614L58.6696 34.41C58.5473 33.7981 57.7923 33.5695 57.3511 34.0108L54.0366 37.3253C53.9987 37.3632 53.9663 37.4052 53.9375 37.4491C52.7533 36.8031 51.4669 36.3862 50.125 36.2146V25.8125C50.125 25.2747 49.9065 24.787 49.5536 24.4334L49.5541 24.4329L43.6921 18.5709L43.6916 18.5715C43.338 18.2185 42.8503 18 42.3125 18H22.7812C22.3498 18 22 18.3498 22 18.7812V34.5625C22 34.994 22.3498 35.3438 22.7812 35.3438C23.2127 35.3438 23.5625 34.994 23.5625 34.5625V19.5625H42.3125C42.5279 19.5625 42.7031 19.7377 42.7031 19.9531V24.6406C42.7031 25.0721 43.053 25.4219 43.4844 25.4219H48.1719C48.3873 25.4219 48.5625 25.5971 48.5625 25.8125V36.127C46.0741 36.162 43.7838 37.0316 41.9603 38.4688H34.5C34.0686 38.4688 33.7188 38.8185 33.7188 39.25C33.7188 39.6815 34.0686 40.0312 34.5 40.0312H40.348C39.9385 40.518 39.5703 41.0404 39.2495 41.5938H34.5C34.0686 41.5938 33.7188 41.9435 33.7188 42.375C33.7188 42.8065 34.0686 43.1562 34.5 43.1562H38.503C38.1262 44.1382 37.887 45.1877 37.8095 46.2812H34.5C34.0686 46.2812 33.7188 46.631 33.7188 47.0625C33.7188 47.494 34.0686 47.8438 34.5 47.8438H37.8095C37.8472 48.3759 37.9234 48.8976 38.0349 49.4062H34.5C34.0686 49.4062 33.7188 49.756 33.7188 50.1875C33.7188 50.619 34.0686 50.9688 34.5 50.9688H38.503C39.3826 53.2614 41.0123 55.1851 43.0908 56.4375H23.5625V41.5938C23.5625 41.1623 23.2127 40.8125 22.7812 40.8125C22.3498 40.8125 22 41.1623 22 41.5938V57.2188C22 57.6502 22.3498 58 22.7812 58H48.7188C54.7497 58 59.6562 53.0934 59.6562 47.0625C59.6562 45.2136 59.2009 43.4365 58.3322 41.8438C58.3761 41.8149 58.418 41.7827 58.4559 41.7448L61.7705 38.4302ZM44.2656 21.3541L46.7709 23.8594H44.2656V21.3541ZM48.7188 56.4375C43.5494 56.4375 39.3438 52.2319 39.3438 47.0625C39.3438 41.8931 43.5494 37.6875 48.7188 37.6875C50.6623 37.6875 52.5137 38.273 54.093 39.3813L54.2933 40.383L53.3827 41.2937C52.1073 40.2606 50.4841 39.6406 48.7188 39.6406C44.6263 39.6406 41.2969 42.9701 41.2969 47.0625C41.2969 51.1549 44.6263 54.4844 48.7188 54.4844C52.8112 54.4844 56.1406 51.1549 56.1406 47.0625C56.1406 45.2971 55.5206 43.674 54.4875 42.3986L55.3981 41.488L56.3999 41.6884C57.5084 43.2676 58.0938 45.1188 58.0938 47.0625C58.0938 52.2319 53.8881 56.4375 48.7188 56.4375ZM48.1663 47.6149C48.4714 47.92 48.9661 47.92 49.2712 47.6149L50.8334 46.0527C50.9802 46.3587 51.0625 46.7011 51.0625 47.0625C51.0625 48.3548 50.0111 49.4062 48.7188 49.4062C47.4264 49.4062 46.375 48.3548 46.375 47.0625C46.375 45.7702 47.4264 44.7188 48.7188 44.7188C49.0802 44.7188 49.4226 44.8011 49.7286 44.9478L48.1663 46.5101C47.8612 46.8152 47.8612 47.3098 48.1663 47.6149ZM50.8713 43.8051C50.2537 43.3955 49.5138 43.1562 48.7188 43.1562C46.5648 43.1562 44.8125 44.9086 44.8125 47.0625C44.8125 49.2164 46.5648 50.9688 48.7188 50.9688C50.8727 50.9688 52.625 49.2164 52.625 47.0625C52.625 46.2675 52.3857 45.5276 51.9762 44.9099L53.3749 43.5112C54.1289 44.4973 54.5781 45.7281 54.5781 47.0625C54.5781 50.2934 51.9496 52.9219 48.7188 52.9219C45.4879 52.9219 42.8594 50.2934 42.8594 47.0625C42.8594 43.8316 45.4879 41.2031 48.7188 41.2031C50.0531 41.2031 51.284 41.6523 52.2701 42.4062L50.8713 43.8051ZM57.6467 40.3442L57.0402 40.2229C57.0338 40.2213 57.0273 40.2205 57.0209 40.2191L55.8053 39.9759L55.563 38.7644C55.5614 38.7565 55.5602 38.7486 55.5584 38.7408L55.4371 38.1345L57.4238 36.1478L57.6899 37.4785C57.7518 37.7877 57.9935 38.0295 58.3028 38.0913L59.6335 38.3574L57.6467 40.3442Z" fill="#335AA7"/>
</g>
<defs>
<clipPath id="clip0_8_1288">
<rect width="40" height="40" fill="white" transform="translate(22 18)"/>
</clipPath>
</defs>
</svg>
