<svg width="80" height="80" viewBox="0 0 80 80" fill="none" xmlns="http://www.w3.org/2000/svg">
<circle cx="40" cy="40" r="40" fill="#CBE8FB"/>
<path d="M49.6918 41C49.4621 43.2259 48.4758 45.3057 46.8975 46.892C45.3192 48.4783 43.2445 49.4751 41.0198 49.716C40.975 49.7155 40.9305 49.7239 40.889 49.7408C40.8475 49.7577 40.8098 49.7827 40.7781 49.8144C40.7465 49.8461 40.7214 49.8838 40.7045 49.9253C40.6876 49.9668 40.6792 50.0112 40.6798 50.056V57.332C40.6798 57.5124 40.6081 57.6853 40.4806 57.8129C40.3531 57.9404 40.1801 58.012 39.9998 58.012C39.8194 58.012 39.6465 57.9404 39.5189 57.8129C39.3914 57.6853 39.3198 57.5124 39.3198 57.332V54.692C39.3133 54.604 39.2754 54.5212 39.213 54.4588C39.1506 54.3964 39.0678 54.3585 38.9798 54.352C35.9554 54.1073 33.0867 52.9093 30.7865 50.9304C28.4864 48.9516 26.8734 46.2939 26.1798 43.34C26.1539 43.2525 26.146 43.1607 26.1564 43.07C26.1668 42.9794 26.1954 42.8918 26.2403 42.8124C26.2853 42.733 26.3458 42.6635 26.4183 42.608C26.4907 42.5524 26.5735 42.5121 26.6619 42.4892C26.7502 42.4664 26.8422 42.4616 26.9325 42.4751C27.0227 42.4886 27.1093 42.5201 27.1872 42.5678C27.265 42.6154 27.3324 42.6783 27.3854 42.7525C27.4384 42.8268 27.476 42.911 27.4958 43C28.1124 45.6515 29.5503 48.0406 31.6045 49.8269C33.6587 51.6132 36.2244 52.7055 38.9358 52.948C39.0238 52.992 39.1078 52.948 39.1918 52.864C39.2362 52.839 39.2721 52.8012 39.2949 52.7556C39.3177 52.71 39.3263 52.6586 39.3198 52.608V50.056C39.3203 50.0112 39.3119 49.9668 39.295 49.9253C39.2781 49.8838 39.253 49.8461 39.2214 49.8144C39.1897 49.7827 39.152 49.7577 39.1105 49.7408C39.069 49.7239 39.0246 49.7155 38.9798 49.716C36.7656 49.4694 34.6995 48.4828 33.1158 46.916C31.5323 45.3246 30.5438 43.2374 30.3158 41.004C30.3028 40.9223 30.2617 40.8477 30.1997 40.7929C30.1376 40.7382 30.0585 40.7067 29.9758 40.704H22.6998C22.5141 40.704 22.3361 40.6303 22.2048 40.499C22.0735 40.3677 21.9998 40.1897 21.9998 40.004C21.9998 39.8184 22.0735 39.6403 22.2048 39.5091C22.3361 39.3778 22.5141 39.304 22.6998 39.304H25.4638C25.5462 39.3006 25.625 39.2689 25.6869 39.2143C25.7488 39.1597 25.7901 39.0854 25.8038 39.004C25.9853 35.9842 27.1073 33.0969 29.0125 30.7469C30.9178 28.3969 33.5107 26.7021 36.4278 25.9C36.6044 25.8665 36.7872 25.9018 36.9386 25.9988C37.0901 26.0957 37.1987 26.2469 37.2421 26.4214C37.2856 26.5959 37.2607 26.7804 37.1725 26.9371C37.0843 27.0937 36.9395 27.2107 36.7678 27.264C34.158 27.9678 31.8332 29.4689 30.1178 31.5578C28.4025 33.6468 27.3823 36.2192 27.1998 38.916C27.1885 38.9657 27.1889 39.0173 27.2011 39.0668C27.2132 39.1163 27.2367 39.1623 27.2697 39.2011C27.3027 39.2399 27.3443 39.2705 27.3912 39.2905C27.438 39.3104 27.4889 39.3192 27.5398 39.316H29.9598C30.0425 39.3133 30.1216 39.2819 30.1837 39.2272C30.2457 39.1724 30.2868 39.0978 30.2998 39.016C30.5263 36.786 31.5122 34.7016 33.0924 33.1119C34.6726 31.5222 36.7512 30.5239 38.9798 30.284C39.0246 30.2846 39.069 30.2761 39.1105 30.2592C39.152 30.2424 39.1897 30.2173 39.2214 30.1856C39.253 30.154 39.2781 30.1163 39.295 30.0748C39.3119 30.0333 39.3203 29.9888 39.3198 29.944V22.668C39.3198 22.4877 39.3914 22.3147 39.5189 22.1872C39.6465 22.0597 39.8194 21.988 39.9998 21.988C40.1801 21.988 40.3531 22.0597 40.4806 22.1872C40.6081 22.3147 40.6798 22.4877 40.6798 22.668V30.92C40.6843 31.0163 40.6687 31.1125 40.634 31.2024C40.5992 31.2923 40.546 31.374 40.4778 31.4421C40.4097 31.5103 40.328 31.5635 40.2381 31.5982C40.1482 31.633 40.052 31.6486 39.9558 31.644C32.5598 31.644 28.8638 40.7 34.0918 45.932C39.3198 51.164 48.2438 47.42 48.3718 40C48.3707 39.9104 48.3875 39.8215 48.4213 39.7385C48.4551 39.6556 48.5052 39.5802 48.5685 39.5168C48.6319 39.4535 48.7073 39.4034 48.7903 39.3696C48.8733 39.3358 48.9622 39.319 49.0518 39.32H57.2998C57.4854 39.32 57.6635 39.3938 57.7947 39.5251C57.926 39.6563 57.9998 39.8344 57.9998 40.02C57.9998 40.2057 57.926 40.3837 57.7947 40.515C57.6635 40.6463 57.4854 40.72 57.2998 40.72H54.5798C54.4954 40.7166 54.4129 40.7459 54.3496 40.8018C54.2862 40.8577 54.2469 40.9359 54.2398 41.02C54.019 44.0587 52.8438 46.95 50.882 49.281C48.9202 51.612 46.2721 53.2637 43.3158 54C42.4238 54.212 42.1158 52.852 43.0158 52.64C45.6559 51.9836 48.0236 50.5154 49.7853 48.4423C51.547 46.3691 52.6139 43.7955 52.8358 41.084C52.847 41.0344 52.8466 40.9827 52.8344 40.9333C52.8223 40.8838 52.7988 40.8378 52.7658 40.799C52.7328 40.7602 52.6912 40.7296 52.6444 40.7096C52.5975 40.6897 52.5466 40.6809 52.4958 40.684H50.0318C49.9491 40.6867 49.8699 40.7182 49.8078 40.7729C49.7458 40.8277 49.7047 40.9023 49.6918 40.984V41ZM55.1998 29.688L50.2838 34.576C50.1636 34.7064 49.9969 34.7841 49.8198 34.792H46.5438C46.4543 34.7999 46.368 34.8286 46.2918 34.876L40.4678 40.744C40.3368 40.8664 40.1635 40.9332 39.9843 40.9303C39.8051 40.9274 39.634 40.8552 39.507 40.7287C39.38 40.6022 39.3071 40.4314 39.3035 40.2523C39.2999 40.0731 39.3659 39.8995 39.4878 39.768L45.3118 33.896C45.3509 33.8764 45.3838 33.8461 45.4064 33.8085C45.4291 33.771 45.4406 33.7279 45.4398 33.684V30.4C45.4389 30.3054 45.4573 30.2116 45.4937 30.1243C45.5302 30.037 45.5839 29.958 45.6518 29.892L50.5398 25.008C50.6341 24.906 50.7571 24.8347 50.8925 24.8036C51.028 24.7724 51.1697 24.7827 51.2992 24.8332C51.4287 24.8837 51.54 24.9721 51.6186 25.0867C51.6971 25.2014 51.7394 25.337 51.7398 25.476V28.156C51.7454 28.2444 51.783 28.3276 51.8456 28.3902C51.9082 28.4527 51.9914 28.4904 52.0798 28.496H54.7158C54.8564 28.4924 54.9948 28.5311 55.1131 28.6072C55.2313 28.6834 55.3239 28.7934 55.3787 28.9229C55.4335 29.0524 55.4481 29.1955 55.4205 29.3334C55.3928 29.4713 55.3243 29.5977 55.2238 29.696L55.1998 29.688ZM49.5998 33.288L52.4478 30.44C52.4972 30.3943 52.5322 30.3351 52.5483 30.2697C52.5644 30.2043 52.561 30.1356 52.5384 30.0721C52.5158 30.0086 52.4751 29.9532 52.4213 29.9126C52.3675 29.8721 52.303 29.8482 52.2358 29.844H51.0358C50.85 29.8484 50.67 29.7795 50.5345 29.6523C50.3991 29.5251 50.3191 29.3497 50.3118 29.164V28C50.3114 27.9311 50.2909 27.8639 50.2527 27.8065C50.2145 27.7492 50.1603 27.7044 50.0968 27.6775C50.0334 27.6507 49.9635 27.6431 49.8957 27.6556C49.828 27.6681 49.7654 27.7003 49.7158 27.748L46.9158 30.596C46.841 30.6612 46.795 30.7532 46.7878 30.852V33.064C46.7872 33.1088 46.7956 33.1533 46.8125 33.1948C46.8294 33.2363 46.8545 33.274 46.8861 33.3056C46.9178 33.3373 46.9555 33.3624 46.997 33.3792C47.0385 33.3961 47.083 33.4046 47.1278 33.404H49.3798C49.4678 33.404 49.5518 33.404 49.5918 33.316L49.5998 33.288ZM45.7758 40.008C45.7773 41.1517 45.4396 42.2702 44.8053 43.2218C44.1709 44.1735 43.2685 44.9156 42.2123 45.3541C41.156 45.7927 39.9934 45.9081 38.8716 45.6857C37.7497 45.4632 36.7191 44.913 35.9101 44.1045C35.1011 43.2961 34.5501 42.2658 34.3269 41.1442C34.1037 40.0225 34.2183 38.8598 34.6561 37.8032C35.094 36.7467 35.8354 35.8437 36.7866 35.2088C37.7379 34.5738 38.8561 34.2352 39.9998 34.236C40.1716 34.2492 40.3322 34.3268 40.4493 34.4532C40.5664 34.5797 40.6315 34.7457 40.6315 34.918C40.6315 35.0904 40.5664 35.2564 40.4493 35.3829C40.3322 35.5093 40.1716 35.5869 39.9998 35.6C38.8328 35.6 37.7136 36.0636 36.8885 36.8888C36.0633 37.7139 35.5998 38.8331 35.5998 40C35.5998 41.167 36.0633 42.2861 36.8885 43.1113C37.7136 43.9365 38.8328 44.4 39.9998 44.4C42.5518 44.4 44.2518 42.488 44.3758 40C44.3718 39.9035 44.3877 39.8072 44.4225 39.7171C44.4573 39.6271 44.5103 39.5451 44.5782 39.4764C44.646 39.4076 44.7273 39.3536 44.8169 39.3176C44.9066 39.2816 45.0027 39.2645 45.0992 39.2672C45.1958 39.27 45.2907 39.2926 45.3781 39.3336C45.4656 39.3746 45.5437 39.4332 45.6075 39.5057C45.6713 39.5782 45.7196 39.663 45.7492 39.7549C45.7788 39.8469 45.7892 39.9439 45.7798 40.04L45.7758 40.008Z" fill="#335AA7"/>
</svg>
